Coordinates
version=1
nRows=14
nColumns=24
inDegrees=yes

Units are S.I. units (second, meters, Newtons, ...)
Angles are in degrees.

endheader
time	pelvis_tilt	pelvis_list	pelvis_rotation	pelvis_tx	pelvis_ty	pelvis_tz	hip_flexion_r	hip_adduction_r	hip_rotation_r	knee_angle_r	ankle_angle_r	subtalar_angle_r	mtp_angle_r	hip_flexion_l	hip_adduction_l	hip_rotation_l	knee_angle_l	ankle_angle_l	subtalar_angle_l	mtp_angle_l	lumbar_extension	lumbar_bending	lumbar_rotation
      0.97466667	     -2.05970384	      1.19214272	      1.70517434	     -0.09184695	      1.00250812	      0.29270757	    -12.99760655	      1.04888853	     -2.71656190	     -9.76039599	      9.77438329	     -2.36044259	      5.75957188	     20.39361367	      3.39797711	      4.51113913	      0.99113226	      0.95308425	     -5.07192863	      1.15280136	    -11.78414812	      3.55025150	      6.68811087
      0.97883333	     -2.06020058	      1.28149569	      1.67037012	     -0.08608921	      1.00190240	      0.29229917	    -13.01987845	      0.89165855	     -2.82620866	    -10.43439527	      9.84588879	     -2.12851304	      6.26336851	     20.31671726	      3.56537424	      4.69449812	      0.94559003	      0.77728156	     -5.13416675	      1.28607647	    -11.75366736	      3.42596447	      6.63186733
      0.98300000	     -2.05973115	      1.35375302	      1.66677106	     -0.08034816	      1.00133178	      0.29188334	    -13.06061467	      0.77387690	     -2.85507361	    -11.05435218	      9.73090234	     -2.19908766	      6.34895132	     20.28109974	      3.72687929	      4.85492413	      0.74349485	      0.65412418	     -5.10756326	      1.30804544	    -11.74906037	      3.34302256	      6.60779694
      0.98716667	     -2.11628193	      1.45193555	      1.64789445	     -0.07459454	      1.00067035	      0.29142097	    -12.97078232	      0.60031704	     -2.97720954	    -11.81997447	      9.68981352	     -2.02452368	     12.09747454	     20.25548361	      3.91725826	      5.23822299	      0.58705202	      0.26043212	     -5.60154061	      2.72818451	    -11.65772666	      3.21170376	      6.52174604
      0.99133333	     -2.09898746	      1.59231439	      1.61974578	     -0.06880567	      1.00014543	      0.29097588	    -12.94241372	      0.37884871	     -3.11933201	    -12.63459422	      9.71610306	     -1.72001563	     12.18234818	     20.19843295	      4.14516241	      5.34462189	      0.26280215	      0.06377428	     -5.60999122	      2.73044744	    -11.66237315	      3.03773870	      6.45188425
      0.99550000	     -2.13669590	      1.71875384	      1.60010016	     -0.06301592	      0.99956825	      0.29052541	    -12.83289251	      0.17653330	     -3.22323300	    -13.48713757	      9.68038252	     -1.55206150	     12.32056674	     20.19365012	      4.36494848	      5.56423422	     -0.09558230	     -0.24558666	     -5.88978189	      2.73956112	    -11.58791529	      2.88458306	      6.37807490
      0.99966667	     -2.13199554	      1.86774308	      1.59006101	     -0.05721550	      0.99906758	      0.29006081	    -12.75444497	     -0.04886606	     -3.34380016	    -14.36673521	      9.60809071	     -1.37032740	     12.53634629	     20.14021434	      4.61108961	      5.80983413	     -0.49080670	     -0.60903914	     -6.26034783	      2.75822452	    -11.56917514	      2.70127959	      6.28650409
      1.00383333	     -2.12501216	      2.02005297	      1.57192889	     -0.05139533	      0.99858461	      0.28960242	    -12.65595961	     -0.27920332	     -3.44421286	    -15.28620957	      9.48683946	     -1.24729814	     12.78839302	     20.08423062	      4.85829276	      6.03716926	     -0.92337898	     -0.99724059	     -6.64879666	      2.78138782	    -11.54385986	      2.51253941	      6.18995760
      1.00800000	     -2.10155441	      2.18402274	      1.58648252	     -0.04555936	      0.99813837	      0.28908411	    -12.56778063	     -0.51940777	     -3.59121098	    -16.21410006	      9.27172297	     -1.11330580	     13.49190798	     20.00714104	      5.13237796	      6.37623439	     -1.38794823	     -1.39284131	     -7.22976334	      2.85540962	    -11.54839854	      2.30979911	      6.09997358
      1.01216667	     -2.14648552	      2.33439530	      1.54747745	     -0.03976863	      0.99764594	      0.28865760	    -12.34824637	     -0.75254587	     -3.62377320	    -17.24125405	      9.08339498	     -1.07662414	     13.82090155	     20.04290228	      5.37059288	      6.47757629	     -1.94099709	     -1.83374522	     -7.55598375	      2.88077018	    -11.47144528	      2.14109657	      5.98924282
      1.01633333	     -2.13632638	      2.50489558	      1.54094346	     -0.03394731	      0.99722643	      0.28816436	    -12.17592219	     -1.00748999	     -3.74262444	    -18.29187582	      8.82137633	     -0.98501535	     14.28041920	     20.00580040	      5.64352823	      6.68697470	     -2.49428772	     -2.28421156	     -8.09421245	      2.91349864	    -11.45394665	      1.93569464	      5.88047395
      1.02050000	     -2.11079795	      2.66970667	      1.53883070	     -0.02811002	      0.99686691	      0.28769131	    -12.02520344	     -1.24416314	     -3.80426330	    -19.29614508	      8.32846919	     -1.18103692	     20.56887337	     19.96133565	      5.90996001	      6.89182154	     -3.08868043	     -2.69919683	     -8.63588394	      3.39185394	    -11.46555624	      1.72474375	      5.77697134
      1.02466667	     -2.09912662	      2.85940145	      1.52218820	     -0.02228874	      0.99649184	      0.28720028	    -11.79344699	     -1.53030352	     -3.93194979	    -20.44835595	      7.97551139	     -1.06078326	     20.65355990	     19.95185674	      6.19676385	      6.97744232	     -3.73145919	     -3.08893005	     -9.03957297	      3.38128934	    -11.45277976	      1.49871880	      5.65472148
      1.02883333	     -2.07441619	      3.05204037	      1.50298455	     -0.01646755	      0.99617115	      0.28671426	    -11.55492992	     -1.81593409	     -4.03160935	    -21.62260800	      7.52906768	     -1.05526368	     20.84122653	     19.91612905	      6.48663190	      7.11564311	     -4.36123686	     -3.49624261	     -9.57609736	      3.36773749	    -11.45845341	      1.27332380	      5.53482059
